<mxfile host="app.diagrams.net" modified="2024-04-20T19:02:23.102Z" agent="Mozilla/5.0 (Windows NT 10.0; Win64; x64) AppleWebKit/537.36 (KHTML, like Gecko) Chrome/121.0.0.0 Safari/537.36 OPR/107.0.0.0" etag="TkLDb4dHoNq748tVQN-Z" version="24.2.5" type="device">
  <diagram name="PÃ¡gina-1" id="KG6CBLEXBB0JgvGJIDjY">
    <mxGraphModel dx="1631" dy="837" grid="1" gridSize="10" guides="1" tooltips="1" connect="1" arrows="1" fold="1" page="1" pageScale="1" pageWidth="827" pageHeight="1169" math="0" shadow="0">
      <root>
        <mxCell id="0" />
        <mxCell id="1" parent="0" />
        <mxCell id="rSER60wAVROJVgB4NvN6-5" value="" style="edgeStyle=orthogonalEdgeStyle;rounded=0;orthogonalLoop=1;jettySize=auto;html=1;entryX=0.5;entryY=1;entryDx=0;entryDy=0;endArrow=none;endFill=0;" parent="1" source="rSER60wAVROJVgB4NvN6-1" target="9m2_ksoVevvz4CIYLZ0E-8" edge="1">
          <mxGeometry relative="1" as="geometry">
            <mxPoint x="410" y="285" as="targetPoint" />
          </mxGeometry>
        </mxCell>
        <mxCell id="rSER60wAVROJVgB4NvN6-21" value="" style="edgeStyle=orthogonalEdgeStyle;rounded=0;orthogonalLoop=1;jettySize=auto;html=1;endArrow=none;endFill=0;" parent="1" source="rSER60wAVROJVgB4NvN6-1" target="rSER60wAVROJVgB4NvN6-20" edge="1">
          <mxGeometry relative="1" as="geometry" />
        </mxCell>
        <mxCell id="rSER60wAVROJVgB4NvN6-1" value="CLIENTE" style="rounded=0;whiteSpace=wrap;html=1;" parent="1" vertex="1">
          <mxGeometry x="350" y="370" width="120" height="60" as="geometry" />
        </mxCell>
        <mxCell id="rSER60wAVROJVgB4NvN6-16" value="" style="endArrow=none;html=1;rounded=0;entryX=0.5;entryY=1;entryDx=0;entryDy=0;exitX=0;exitY=0;exitDx=0;exitDy=0;endFill=0;" parent="1" source="rSER60wAVROJVgB4NvN6-1" target="9m2_ksoVevvz4CIYLZ0E-6" edge="1">
          <mxGeometry width="50" height="50" relative="1" as="geometry">
            <mxPoint x="390" y="420" as="sourcePoint" />
            <mxPoint x="305.35533905932743" y="279.14213562373095" as="targetPoint" />
          </mxGeometry>
        </mxCell>
        <mxCell id="rSER60wAVROJVgB4NvN6-19" value="" style="endArrow=none;html=1;rounded=0;exitX=0;exitY=0.75;exitDx=0;exitDy=0;entryX=1;entryY=0.5;entryDx=0;entryDy=0;endFill=0;" parent="1" source="rSER60wAVROJVgB4NvN6-1" target="9m2_ksoVevvz4CIYLZ0E-5" edge="1">
          <mxGeometry width="50" height="50" relative="1" as="geometry">
            <mxPoint x="390" y="420" as="sourcePoint" />
            <mxPoint x="200" y="420" as="targetPoint" />
          </mxGeometry>
        </mxCell>
        <mxCell id="rSER60wAVROJVgB4NvN6-20" value="Possui" style="rhombus;whiteSpace=wrap;html=1;rounded=0;" parent="1" vertex="1">
          <mxGeometry x="580" y="365" width="70" height="70" as="geometry" />
        </mxCell>
        <mxCell id="rSER60wAVROJVgB4NvN6-24" value="&lt;div&gt;PET&lt;/div&gt;" style="rounded=0;whiteSpace=wrap;html=1;" parent="1" vertex="1">
          <mxGeometry x="770" y="370" width="120" height="60" as="geometry" />
        </mxCell>
        <mxCell id="rSER60wAVROJVgB4NvN6-26" value="" style="endArrow=none;html=1;rounded=0;entryX=0;entryY=0.5;entryDx=0;entryDy=0;exitX=1;exitY=0.5;exitDx=0;exitDy=0;endFill=0;" parent="1" source="rSER60wAVROJVgB4NvN6-20" target="rSER60wAVROJVgB4NvN6-24" edge="1">
          <mxGeometry width="50" height="50" relative="1" as="geometry">
            <mxPoint x="390" y="420" as="sourcePoint" />
            <mxPoint x="440" y="370" as="targetPoint" />
          </mxGeometry>
        </mxCell>
        <mxCell id="rSER60wAVROJVgB4NvN6-34" value="" style="endArrow=none;html=1;rounded=0;entryX=0.41;entryY=0.95;entryDx=0;entryDy=0;entryPerimeter=0;exitX=1;exitY=0;exitDx=0;exitDy=0;endFill=0;" parent="1" source="rSER60wAVROJVgB4NvN6-24" edge="1">
          <mxGeometry width="50" height="50" relative="1" as="geometry">
            <mxPoint x="840" y="380" as="sourcePoint" />
            <mxPoint x="941" y="243" as="targetPoint" />
          </mxGeometry>
        </mxCell>
        <mxCell id="rSER60wAVROJVgB4NvN6-35" value="" style="endArrow=none;html=1;rounded=0;entryX=0;entryY=1;entryDx=0;entryDy=0;exitX=1;exitY=0.25;exitDx=0;exitDy=0;endFill=0;" parent="1" source="rSER60wAVROJVgB4NvN6-24" edge="1">
          <mxGeometry width="50" height="50" relative="1" as="geometry">
            <mxPoint x="850" y="390" as="sourcePoint" />
            <mxPoint x="994.6446609406726" y="294.14213562373084" as="targetPoint" />
          </mxGeometry>
        </mxCell>
        <mxCell id="rSER60wAVROJVgB4NvN6-36" value="" style="endArrow=none;html=1;rounded=0;entryX=0;entryY=1;entryDx=0;entryDy=0;exitX=1;exitY=0.5;exitDx=0;exitDy=0;endFill=0;" parent="1" source="rSER60wAVROJVgB4NvN6-24" target="rSER60wAVROJVgB4NvN6-72" edge="1">
          <mxGeometry width="50" height="50" relative="1" as="geometry">
            <mxPoint x="860" y="400" as="sourcePoint" />
            <mxPoint x="1000" y="340" as="targetPoint" />
          </mxGeometry>
        </mxCell>
        <mxCell id="rSER60wAVROJVgB4NvN6-38" value="" style="endArrow=none;html=1;rounded=0;exitX=0;exitY=0;exitDx=0;exitDy=0;entryX=1;entryY=1;entryDx=0;entryDy=0;endFill=0;" parent="1" source="rSER60wAVROJVgB4NvN6-24" edge="1">
          <mxGeometry width="50" height="50" relative="1" as="geometry">
            <mxPoint x="390" y="420" as="sourcePoint" />
            <mxPoint x="705.3553390593274" y="294.14213562373106" as="targetPoint" />
          </mxGeometry>
        </mxCell>
        <mxCell id="rSER60wAVROJVgB4NvN6-44" value="" style="edgeStyle=orthogonalEdgeStyle;rounded=0;orthogonalLoop=1;jettySize=auto;html=1;endArrow=none;endFill=0;entryX=0;entryY=0.5;entryDx=0;entryDy=0;" parent="1" source="rSER60wAVROJVgB4NvN6-42" edge="1" target="5fUI02vUTCdKG48Z7NgD-76">
          <mxGeometry relative="1" as="geometry">
            <mxPoint x="785" y="950" as="targetPoint" />
          </mxGeometry>
        </mxCell>
        <mxCell id="rSER60wAVROJVgB4NvN6-42" value="Assegura" style="rhombus;whiteSpace=wrap;html=1;rounded=0;" parent="1" vertex="1">
          <mxGeometry x="373.75" y="900" width="72.5" height="70" as="geometry" />
        </mxCell>
        <mxCell id="rSER60wAVROJVgB4NvN6-43" value="" style="endArrow=none;html=1;rounded=0;entryX=0.5;entryY=0;entryDx=0;entryDy=0;endFill=0;exitX=0.5;exitY=1;exitDx=0;exitDy=0;" parent="1" source="5fUI02vUTCdKG48Z7NgD-63" target="rSER60wAVROJVgB4NvN6-42" edge="1">
          <mxGeometry width="50" height="50" relative="1" as="geometry">
            <mxPoint x="470" y="430" as="sourcePoint" />
            <mxPoint x="440" y="370" as="targetPoint" />
          </mxGeometry>
        </mxCell>
        <mxCell id="shV7P7bHiktcRZqCJVIz-3" value="Text" style="edgeLabel;html=1;align=center;verticalAlign=middle;resizable=0;points=[];" vertex="1" connectable="0" parent="rSER60wAVROJVgB4NvN6-43">
          <mxGeometry x="-0.5363" y="-3" relative="1" as="geometry">
            <mxPoint as="offset" />
          </mxGeometry>
        </mxCell>
        <mxCell id="rSER60wAVROJVgB4NvN6-45" value="Faz" style="rhombus;whiteSpace=wrap;html=1;rounded=0;" parent="1" vertex="1">
          <mxGeometry x="370" y="540" width="72.5" height="70" as="geometry" />
        </mxCell>
        <mxCell id="rSER60wAVROJVgB4NvN6-47" value="" style="endArrow=none;html=1;rounded=0;exitX=0.442;exitY=1.067;exitDx=0;exitDy=0;entryX=0.5;entryY=0;entryDx=0;entryDy=0;endFill=0;exitPerimeter=0;" parent="1" source="rSER60wAVROJVgB4NvN6-1" target="rSER60wAVROJVgB4NvN6-45" edge="1">
          <mxGeometry width="50" height="50" relative="1" as="geometry">
            <mxPoint x="412.5" y="410" as="sourcePoint" />
            <mxPoint x="442.5" y="350" as="targetPoint" />
          </mxGeometry>
        </mxCell>
        <mxCell id="rSER60wAVROJVgB4NvN6-52" value="Telefone" style="ellipse;shape=doubleEllipse;margin=3;whiteSpace=wrap;html=1;align=center;" parent="1" vertex="1">
          <mxGeometry x="120" y="310" width="100" height="40" as="geometry" />
        </mxCell>
        <mxCell id="rSER60wAVROJVgB4NvN6-62" value="" style="endArrow=none;html=1;rounded=0;exitX=0.25;exitY=0;exitDx=0;exitDy=0;endFill=0;" parent="1" source="rSER60wAVROJVgB4NvN6-24" edge="1">
          <mxGeometry width="50" height="50" relative="1" as="geometry">
            <mxPoint x="800" y="370" as="sourcePoint" />
            <mxPoint x="750" y="239" as="targetPoint" />
          </mxGeometry>
        </mxCell>
        <mxCell id="rSER60wAVROJVgB4NvN6-66" style="edgeStyle=orthogonalEdgeStyle;rounded=0;orthogonalLoop=1;jettySize=auto;html=1;exitX=0.5;exitY=0;exitDx=0;exitDy=0;entryX=0.5;entryY=1;entryDx=0;entryDy=0;endArrow=none;endFill=0;" parent="1" source="rSER60wAVROJVgB4NvN6-24" target="9m2_ksoVevvz4CIYLZ0E-11" edge="1">
          <mxGeometry relative="1" as="geometry">
            <mxPoint x="830" y="243" as="targetPoint" />
          </mxGeometry>
        </mxCell>
        <mxCell id="rSER60wAVROJVgB4NvN6-72" value="Necessidades especiais" style="ellipse;shape=doubleEllipse;margin=3;whiteSpace=wrap;html=1;align=center;" parent="1" vertex="1">
          <mxGeometry x="1000" y="320" width="100" height="40" as="geometry" />
        </mxCell>
        <mxCell id="rSER60wAVROJVgB4NvN6-77" value="" style="endArrow=none;html=1;rounded=0;exitX=0;exitY=1;exitDx=0;exitDy=0;entryX=1;entryY=0.5;entryDx=0;entryDy=0;endFill=0;" parent="1" source="rSER60wAVROJVgB4NvN6-1" target="9m2_ksoVevvz4CIYLZ0E-4" edge="1">
          <mxGeometry width="50" height="50" relative="1" as="geometry">
            <mxPoint x="390" y="520" as="sourcePoint" />
            <mxPoint x="195.35533905932743" y="475.85786437626894" as="targetPoint" />
          </mxGeometry>
        </mxCell>
        <mxCell id="rSER60wAVROJVgB4NvN6-78" value="" style="endArrow=none;html=1;rounded=0;exitX=0;exitY=0.25;exitDx=0;exitDy=0;entryX=1;entryY=0.5;entryDx=0;entryDy=0;endFill=0;" parent="1" source="rSER60wAVROJVgB4NvN6-1" target="rSER60wAVROJVgB4NvN6-52" edge="1">
          <mxGeometry width="50" height="50" relative="1" as="geometry">
            <mxPoint x="360" y="410" as="sourcePoint" />
            <mxPoint x="410" y="360" as="targetPoint" />
          </mxGeometry>
        </mxCell>
        <mxCell id="W3pTMaVZxiQJHKVJO3R3-1" value="0,n" style="text;html=1;align=center;verticalAlign=middle;resizable=0;points=[];autosize=1;strokeColor=none;fillColor=none;" parent="1" vertex="1">
          <mxGeometry x="730" y="370" width="40" height="30" as="geometry" />
        </mxCell>
        <mxCell id="W3pTMaVZxiQJHKVJO3R3-2" value="1,1" style="text;html=1;align=center;verticalAlign=middle;resizable=0;points=[];autosize=1;strokeColor=none;fillColor=none;" parent="1" vertex="1">
          <mxGeometry x="464" y="365" width="40" height="30" as="geometry" />
        </mxCell>
        <mxCell id="9m2_ksoVevvz4CIYLZ0E-1" value="endereÃ§o" style="ellipse;whiteSpace=wrap;html=1;align=center;" parent="1" vertex="1">
          <mxGeometry x="150" y="530" width="100" height="40" as="geometry" />
        </mxCell>
        <mxCell id="9m2_ksoVevvz4CIYLZ0E-3" value="" style="endArrow=none;html=1;rounded=0;exitX=0;exitY=1;exitDx=0;exitDy=0;entryX=1;entryY=0;entryDx=0;entryDy=0;endFill=0;" parent="1" source="rSER60wAVROJVgB4NvN6-1" target="9m2_ksoVevvz4CIYLZ0E-1" edge="1">
          <mxGeometry width="50" height="50" relative="1" as="geometry">
            <mxPoint x="510" y="510" as="sourcePoint" />
            <mxPoint x="560" y="460" as="targetPoint" />
          </mxGeometry>
        </mxCell>
        <mxCell id="9m2_ksoVevvz4CIYLZ0E-4" value="cpf" style="ellipse;whiteSpace=wrap;html=1;align=center;" parent="1" vertex="1">
          <mxGeometry x="110" y="470" width="100" height="40" as="geometry" />
        </mxCell>
        <mxCell id="9m2_ksoVevvz4CIYLZ0E-5" value="email" style="ellipse;whiteSpace=wrap;html=1;align=center;" parent="1" vertex="1">
          <mxGeometry x="100" y="400" width="100" height="40" as="geometry" />
        </mxCell>
        <mxCell id="9m2_ksoVevvz4CIYLZ0E-6" value="email" style="ellipse;whiteSpace=wrap;html=1;align=center;" parent="1" vertex="1">
          <mxGeometry x="220" y="240" width="100" height="40" as="geometry" />
        </mxCell>
        <mxCell id="9m2_ksoVevvz4CIYLZ0E-8" value="id_cliente&lt;div&gt;&lt;br&gt;&lt;/div&gt;" style="ellipse;whiteSpace=wrap;html=1;align=center;" parent="1" vertex="1">
          <mxGeometry x="360" y="240" width="100" height="40" as="geometry" />
        </mxCell>
        <mxCell id="9m2_ksoVevvz4CIYLZ0E-9" value="nome" style="ellipse;whiteSpace=wrap;html=1;align=center;" parent="1" vertex="1">
          <mxGeometry x="630" y="260" width="100" height="40" as="geometry" />
        </mxCell>
        <mxCell id="9m2_ksoVevvz4CIYLZ0E-10" value="id_pet" style="ellipse;whiteSpace=wrap;html=1;align=center;" parent="1" vertex="1">
          <mxGeometry x="680" y="200" width="100" height="40" as="geometry" />
        </mxCell>
        <mxCell id="9m2_ksoVevvz4CIYLZ0E-11" value="espÃ©cie" style="ellipse;whiteSpace=wrap;html=1;align=center;" parent="1" vertex="1">
          <mxGeometry x="790" y="205" width="100" height="40" as="geometry" />
        </mxCell>
        <mxCell id="9m2_ksoVevvz4CIYLZ0E-12" value="raÃ§a" style="ellipse;whiteSpace=wrap;html=1;align=center;" parent="1" vertex="1">
          <mxGeometry x="900" y="205" width="100" height="40" as="geometry" />
        </mxCell>
        <mxCell id="9m2_ksoVevvz4CIYLZ0E-13" value="tamanho" style="ellipse;whiteSpace=wrap;html=1;align=center;" parent="1" vertex="1">
          <mxGeometry x="970" y="260" width="100" height="40" as="geometry" />
        </mxCell>
        <mxCell id="5fUI02vUTCdKG48Z7NgD-28" value="descriÃ§Ã£o" style="ellipse;whiteSpace=wrap;html=1;" parent="1" vertex="1">
          <mxGeometry x="200" y="620" width="80" height="50" as="geometry" />
        </mxCell>
        <mxCell id="5fUI02vUTCdKG48Z7NgD-30" value="valor" style="ellipse;whiteSpace=wrap;html=1;" parent="1" vertex="1">
          <mxGeometry x="100" y="810" width="76" height="50" as="geometry" />
        </mxCell>
        <mxCell id="5fUI02vUTCdKG48Z7NgD-40" value="data geraÃ§Ã£o" style="ellipse;whiteSpace=wrap;html=1;" parent="1" vertex="1">
          <mxGeometry x="112" y="680" width="76" height="50" as="geometry" />
        </mxCell>
        <mxCell id="5fUI02vUTCdKG48Z7NgD-42" value="data pagamento" style="ellipse;whiteSpace=wrap;html=1;" parent="1" vertex="1">
          <mxGeometry x="100" y="740" width="76" height="50" as="geometry" />
        </mxCell>
        <mxCell id="5fUI02vUTCdKG48Z7NgD-44" value="1, n" style="text;html=1;align=center;verticalAlign=middle;whiteSpace=wrap;rounded=0;" parent="1" vertex="1">
          <mxGeometry x="400" y="680" width="60" height="30" as="geometry" />
        </mxCell>
        <mxCell id="5fUI02vUTCdKG48Z7NgD-45" value="0, n" style="text;html=1;align=center;verticalAlign=middle;whiteSpace=wrap;rounded=0;" parent="1" vertex="1">
          <mxGeometry x="460" y="420" width="60" height="30" as="geometry" />
        </mxCell>
        <mxCell id="5fUI02vUTCdKG48Z7NgD-46" value="1,n" style="text;html=1;align=center;verticalAlign=middle;whiteSpace=wrap;rounded=0;" parent="1" vertex="1">
          <mxGeometry x="740" y="905" width="60" height="30" as="geometry" />
        </mxCell>
        <mxCell id="5fUI02vUTCdKG48Z7NgD-50" value="" style="endArrow=none;html=1;rounded=0;exitX=0;exitY=0;exitDx=0;exitDy=0;entryX=1;entryY=0.5;entryDx=0;entryDy=0;" parent="1" source="5fUI02vUTCdKG48Z7NgD-63" edge="1" target="5fUI02vUTCdKG48Z7NgD-28">
          <mxGeometry width="50" height="50" relative="1" as="geometry">
            <mxPoint x="140" y="930" as="sourcePoint" />
            <mxPoint x="190" y="880" as="targetPoint" />
          </mxGeometry>
        </mxCell>
        <mxCell id="5fUI02vUTCdKG48Z7NgD-52" value="" style="endArrow=none;html=1;rounded=0;exitX=0;exitY=0.25;exitDx=0;exitDy=0;entryX=1;entryY=0.5;entryDx=0;entryDy=0;" parent="1" source="5fUI02vUTCdKG48Z7NgD-63" edge="1" target="5fUI02vUTCdKG48Z7NgD-40">
          <mxGeometry width="50" height="50" relative="1" as="geometry">
            <mxPoint x="114.5" y="1049" as="sourcePoint" />
            <mxPoint x="85.5" y="960" as="targetPoint" />
          </mxGeometry>
        </mxCell>
        <mxCell id="5fUI02vUTCdKG48Z7NgD-53" value="" style="endArrow=none;html=1;rounded=0;exitX=0;exitY=0.5;exitDx=0;exitDy=0;entryX=1;entryY=0.5;entryDx=0;entryDy=0;" parent="1" source="5fUI02vUTCdKG48Z7NgD-63" edge="1" target="5fUI02vUTCdKG48Z7NgD-42">
          <mxGeometry width="50" height="50" relative="1" as="geometry">
            <mxPoint x="115" y="1120" as="sourcePoint" />
            <mxPoint x="86" y="1031" as="targetPoint" />
          </mxGeometry>
        </mxCell>
        <mxCell id="5fUI02vUTCdKG48Z7NgD-54" value="" style="endArrow=none;html=1;rounded=0;exitX=1;exitY=0;exitDx=0;exitDy=0;entryX=0;entryY=0.75;entryDx=0;entryDy=0;" parent="1" source="5fUI02vUTCdKG48Z7NgD-30" edge="1" target="5fUI02vUTCdKG48Z7NgD-63">
          <mxGeometry width="50" height="50" relative="1" as="geometry">
            <mxPoint x="260" y="1118" as="sourcePoint" />
            <mxPoint x="231" y="1029" as="targetPoint" />
          </mxGeometry>
        </mxCell>
        <mxCell id="5fUI02vUTCdKG48Z7NgD-63" value="Reserva" style="rounded=0;whiteSpace=wrap;html=1;" parent="1" vertex="1">
          <mxGeometry x="350" y="720" width="120" height="60" as="geometry" />
        </mxCell>
        <mxCell id="5fUI02vUTCdKG48Z7NgD-64" value="Data de inÃ­cio" style="ellipse;whiteSpace=wrap;html=1;" parent="1" vertex="1">
          <mxGeometry x="590" y="770" width="80" height="50" as="geometry" />
        </mxCell>
        <mxCell id="5fUI02vUTCdKG48Z7NgD-65" value="&lt;u&gt;Id de reserva&lt;/u&gt;" style="ellipse;whiteSpace=wrap;html=1;" parent="1" vertex="1">
          <mxGeometry x="620" y="850" width="80" height="50" as="geometry" />
        </mxCell>
        <mxCell id="5fUI02vUTCdKG48Z7NgD-66" value="Data de fim" style="ellipse;whiteSpace=wrap;html=1;" parent="1" vertex="1">
          <mxGeometry x="590" y="670" width="80" height="50" as="geometry" />
        </mxCell>
        <mxCell id="5fUI02vUTCdKG48Z7NgD-68" value="" style="endArrow=none;html=1;rounded=0;exitX=0.75;exitY=0;exitDx=0;exitDy=0;entryX=0;entryY=1;entryDx=0;entryDy=0;" parent="1" source="5fUI02vUTCdKG48Z7NgD-63" target="5fUI02vUTCdKG48Z7NgD-66" edge="1">
          <mxGeometry width="50" height="50" relative="1" as="geometry">
            <mxPoint x="740" y="820" as="sourcePoint" />
            <mxPoint x="790" y="770" as="targetPoint" />
          </mxGeometry>
        </mxCell>
        <mxCell id="5fUI02vUTCdKG48Z7NgD-69" value="" style="endArrow=none;html=1;rounded=0;exitX=1;exitY=0.25;exitDx=0;exitDy=0;entryX=0;entryY=0.5;entryDx=0;entryDy=0;" parent="1" source="5fUI02vUTCdKG48Z7NgD-63" target="5fUI02vUTCdKG48Z7NgD-64" edge="1">
          <mxGeometry width="50" height="50" relative="1" as="geometry">
            <mxPoint x="740" y="820" as="sourcePoint" />
            <mxPoint x="790" y="770" as="targetPoint" />
          </mxGeometry>
        </mxCell>
        <mxCell id="5fUI02vUTCdKG48Z7NgD-70" value="" style="endArrow=none;html=1;rounded=0;exitX=1;exitY=0.5;exitDx=0;exitDy=0;entryX=0;entryY=0.5;entryDx=0;entryDy=0;" parent="1" source="5fUI02vUTCdKG48Z7NgD-63" target="5fUI02vUTCdKG48Z7NgD-65" edge="1">
          <mxGeometry width="50" height="50" relative="1" as="geometry">
            <mxPoint x="740" y="820" as="sourcePoint" />
            <mxPoint x="790" y="770" as="targetPoint" />
          </mxGeometry>
        </mxCell>
        <mxCell id="5fUI02vUTCdKG48Z7NgD-73" value="" style="endArrow=none;html=1;rounded=0;exitX=0.5;exitY=0;exitDx=0;exitDy=0;entryX=0.5;entryY=1;entryDx=0;entryDy=0;" parent="1" source="5fUI02vUTCdKG48Z7NgD-63" target="rSER60wAVROJVgB4NvN6-45" edge="1">
          <mxGeometry width="50" height="50" relative="1" as="geometry">
            <mxPoint x="350" y="660" as="sourcePoint" />
            <mxPoint x="400" y="600" as="targetPoint" />
          </mxGeometry>
        </mxCell>
        <mxCell id="5fUI02vUTCdKG48Z7NgD-76" value="ACOMODAÃÃO" style="rounded=0;whiteSpace=wrap;html=1;" parent="1" vertex="1">
          <mxGeometry x="800" y="905" width="120" height="60" as="geometry" />
        </mxCell>
        <mxCell id="5fUI02vUTCdKG48Z7NgD-77" value="Tipo" style="ellipse;whiteSpace=wrap;html=1;" parent="1" vertex="1">
          <mxGeometry x="985" y="885" width="80" height="50" as="geometry" />
        </mxCell>
        <mxCell id="5fUI02vUTCdKG48Z7NgD-78" value="&lt;u&gt;Id do quarto&lt;/u&gt;" style="ellipse;whiteSpace=wrap;html=1;" parent="1" vertex="1">
          <mxGeometry x="985" y="965" width="80" height="50" as="geometry" />
        </mxCell>
        <mxCell id="5fUI02vUTCdKG48Z7NgD-80" value="Camas" style="ellipse;whiteSpace=wrap;html=1;" parent="1" vertex="1">
          <mxGeometry x="955" y="1055" width="80" height="50" as="geometry" />
        </mxCell>
        <mxCell id="5fUI02vUTCdKG48Z7NgD-81" value="Andar/Bloco" style="ellipse;whiteSpace=wrap;html=1;dashed=1;" parent="1" vertex="1">
          <mxGeometry x="1105" y="935" width="80" height="50" as="geometry" />
        </mxCell>
        <mxCell id="5fUI02vUTCdKG48Z7NgD-82" value="NÃºmero" style="ellipse;whiteSpace=wrap;html=1;dashed=1;" parent="1" vertex="1">
          <mxGeometry x="1105" y="1015" width="80" height="50" as="geometry" />
        </mxCell>
        <mxCell id="5fUI02vUTCdKG48Z7NgD-84" value="" style="endArrow=none;html=1;rounded=0;exitX=1;exitY=0.25;exitDx=0;exitDy=0;entryX=0;entryY=0.5;entryDx=0;entryDy=0;" parent="1" source="5fUI02vUTCdKG48Z7NgD-76" target="5fUI02vUTCdKG48Z7NgD-77" edge="1">
          <mxGeometry width="50" height="50" relative="1" as="geometry">
            <mxPoint x="1105" y="1005" as="sourcePoint" />
            <mxPoint x="1155" y="955" as="targetPoint" />
          </mxGeometry>
        </mxCell>
        <mxCell id="5fUI02vUTCdKG48Z7NgD-85" value="" style="endArrow=none;html=1;rounded=0;exitX=1;exitY=0.5;exitDx=0;exitDy=0;entryX=0;entryY=0.5;entryDx=0;entryDy=0;" parent="1" source="5fUI02vUTCdKG48Z7NgD-76" target="5fUI02vUTCdKG48Z7NgD-78" edge="1">
          <mxGeometry width="50" height="50" relative="1" as="geometry">
            <mxPoint x="1105" y="1005" as="sourcePoint" />
            <mxPoint x="1155" y="955" as="targetPoint" />
          </mxGeometry>
        </mxCell>
        <mxCell id="5fUI02vUTCdKG48Z7NgD-86" value="" style="endArrow=none;html=1;rounded=0;exitX=1;exitY=0;exitDx=0;exitDy=0;entryX=0;entryY=0.5;entryDx=0;entryDy=0;" parent="1" source="5fUI02vUTCdKG48Z7NgD-78" target="5fUI02vUTCdKG48Z7NgD-81" edge="1">
          <mxGeometry width="50" height="50" relative="1" as="geometry">
            <mxPoint x="1105" y="1005" as="sourcePoint" />
            <mxPoint x="1155" y="955" as="targetPoint" />
          </mxGeometry>
        </mxCell>
        <mxCell id="5fUI02vUTCdKG48Z7NgD-87" value="" style="endArrow=none;html=1;rounded=0;exitX=1;exitY=1;exitDx=0;exitDy=0;entryX=0;entryY=0.5;entryDx=0;entryDy=0;" parent="1" source="5fUI02vUTCdKG48Z7NgD-78" target="5fUI02vUTCdKG48Z7NgD-82" edge="1">
          <mxGeometry width="50" height="50" relative="1" as="geometry">
            <mxPoint x="1105" y="1005" as="sourcePoint" />
            <mxPoint x="1155" y="955" as="targetPoint" />
          </mxGeometry>
        </mxCell>
        <mxCell id="5fUI02vUTCdKG48Z7NgD-88" value="" style="endArrow=none;html=1;rounded=0;exitX=1;exitY=1;exitDx=0;exitDy=0;entryX=0.5;entryY=0;entryDx=0;entryDy=0;" parent="1" source="5fUI02vUTCdKG48Z7NgD-76" edge="1">
          <mxGeometry width="50" height="50" relative="1" as="geometry">
            <mxPoint x="1105" y="1005" as="sourcePoint" />
            <mxPoint x="995" y="1055" as="targetPoint" />
          </mxGeometry>
        </mxCell>
        <mxCell id="5fUI02vUTCdKG48Z7NgD-89" value="" style="endArrow=none;html=1;rounded=0;exitX=0.5;exitY=0;exitDx=0;exitDy=0;entryX=0.75;entryY=1;entryDx=0;entryDy=0;" parent="1" source="5fUI02vUTCdKG48Z7NgD-90" target="5fUI02vUTCdKG48Z7NgD-76" edge="1">
          <mxGeometry width="50" height="50" relative="1" as="geometry">
            <mxPoint x="780" y="1085" as="sourcePoint" />
            <mxPoint x="820" y="985" as="targetPoint" />
            <Array as="points" />
          </mxGeometry>
        </mxCell>
        <mxCell id="5fUI02vUTCdKG48Z7NgD-90" value="PreÃ§o" style="ellipse;whiteSpace=wrap;html=1;" parent="1" vertex="1">
          <mxGeometry x="850" y="1065" width="80" height="50" as="geometry" />
        </mxCell>
        <mxCell id="5fUI02vUTCdKG48Z7NgD-95" value="1,1" style="text;html=1;align=center;verticalAlign=middle;resizable=0;points=[];autosize=1;strokeColor=none;fillColor=none;" parent="1" vertex="1">
          <mxGeometry x="410" y="435" width="40" height="30" as="geometry" />
        </mxCell>
        <mxCell id="shV7P7bHiktcRZqCJVIz-4" value="0,n" style="text;html=1;align=center;verticalAlign=middle;resizable=0;points=[];autosize=1;strokeColor=none;fillColor=none;" vertex="1" parent="1">
          <mxGeometry x="420" y="780" width="40" height="30" as="geometry" />
        </mxCell>
      </root>
    </mxGraphModel>
  </diagram>
</mxfile>
